# xmcd CD database file
#
# Track frame offsets:
#	150
#	28150
#	42470
#	68457
#	88270
#	116012
#	131925
#	159240
#	183037
#	207725
#
# Disc length: 3106 seconds
#
# Revision: 0
# Processed by: cddbd v1.4PL0 Copyright (c) Steve Scherf et al.
# Submitted via: CDex 1.50
#
DISCID=8d0c200a
DTITLE=Karl Olandersson - Introducing
DYEAR=2002
DGENRE=Jazz
TTITLE0=Moon River
TTITLE1=Red Sails in Sunset
TTITLE2=The Night We Called it a Day
TTITLE3=The Old Country
TTITLE4=How Long Has This Been Going On
TTITLE5=Sermonette
TTITLE6=We'll be Together Again
TTITLE7=Smile
TTITLE8=I Remember Clifford
TTITLE9=Who Can I Turn To
EXTD=YEAR: 2002
EXTT0=
EXTT1=
EXTT2=
EXTT3=
EXTT4=
EXTT5=
EXTT6=
EXTT7=
EXTT8=
EXTT9=
PLAYORDER=
